<svg width="24" height="24" viewBox="0 0 24 24" fill="none" xmlns="http://www.w3.org/2000/svg">
<g clip-path="url(#clip0_10113_10207)">
<g clip-path="url(#clip1_10113_10207)">
<path d="M24 0H0V24H24V0Z" fill="black"/>
<path d="M7.29216 9.60997L4.86576 8.37451C4.67537 8.74717 4.51537 9.13806 4.38574 9.53705L6.9762 10.3755C7.06127 10.1123 7.16659 9.85503 7.29216 9.60997Z" fill="white"/>
<path d="M9.3539 7.43307L10.6967 9.74803C10.8932 9.63461 11.1038 9.54752 11.3205 9.48879L10.6258 6.90446C10.802 6.85787 10.9823 6.81737 11.1646 6.78901L10.7372 4.09937C10.3241 4.16418 9.9129 4.26342 9.51593 4.39304L10.3463 6.94091C10.081 7.028 9.82379 7.13534 9.57669 7.26092L8.35741 4.87709C7.98677 5.06748 7.62625 5.28824 7.29004 5.53533L8.89414 7.73282C9.04199 7.62548 9.19592 7.52623 9.3539 7.43307Z" fill="white"/>
<path d="M16.566 9.351L14.251 10.6958C14.3644 10.8923 14.4535 11.1029 14.5123 11.3196L17.0966 10.6229C17.1452 10.7991 17.1837 10.9794 17.2121 11.1596L19.9018 10.7323C19.837 10.3191 19.7377 9.90797 19.6061 9.511L17.0602 10.3454C16.9731 10.0801 16.8657 9.8229 16.7402 9.57581L19.124 8.35251C18.9337 7.98187 18.7129 7.62136 18.4658 7.28516L16.2683 8.89125C16.3736 9.0391 16.4728 9.19302 16.566 9.351Z" fill="white"/>
<path d="M15.6211 4.86501C15.2484 4.67463 14.8576 4.51463 14.4586 4.38501L13.6221 6.97541C13.8833 7.06048 14.1406 7.1658 14.3877 7.29137L15.6211 4.86501Z" fill="white"/>
<path d="M14.6549 7.3864L13.2959 9.74592C13.4924 9.85934 13.6746 9.99909 13.8346 10.1591L17.6464 6.33323C17.3507 6.03753 17.0287 5.76411 16.6925 5.51904L15.1208 7.68818C14.9709 7.57881 14.817 7.47754 14.6549 7.3864Z" fill="white"/>
<path d="M7.38783 9.34306L9.74537 10.7041C9.85879 10.5076 9.99855 10.3253 10.1586 10.1633L6.33666 6.34961C6.04096 6.64531 5.76753 6.96734 5.52246 7.30354L7.68962 8.87723C7.58227 9.0271 7.481 9.18306 7.38783 9.34306Z" fill="white"/>
<path d="M12.8246 6.7423L13.2358 4.09519C12.8287 4.03241 12.4135 4 11.9983 4H11.9922V9.39955H11.9983C12.2251 9.39955 12.4519 9.4279 12.6687 9.48664L13.3674 6.85572C13.1892 6.80712 13.0089 6.77066 12.8246 6.7423Z" fill="white"/>
<path d="M9.48675 11.3297L6.85578 10.6289C6.8092 10.8071 6.77072 10.9894 6.74236 11.1717L4.09519 10.7585C4.03241 11.1656 4 11.5849 4 12.0001H9.39966C9.39966 11.7712 9.43004 11.5464 9.48675 11.3297Z" fill="white"/>
<path d="M16.708 14.3898L19.1344 15.6253C19.3248 15.2526 19.4848 14.8617 19.6144 14.4628L17.024 13.6243C16.9389 13.8876 16.8336 14.1448 16.708 14.3898Z" fill="white"/>
<path d="M14.6463 16.565L13.3035 14.25C13.107 14.3634 12.8964 14.4505 12.6797 14.5092L13.3744 17.0936C13.1982 17.1402 13.0179 17.1807 12.8356 17.209L13.263 19.8987C13.6762 19.8339 14.0873 19.7346 14.4843 19.605L13.6539 17.0571C13.9192 16.97 14.1764 16.8627 14.4235 16.7371L15.6448 19.1209C16.0155 18.9306 16.376 18.7098 16.7122 18.4627L15.1081 16.2632C14.9603 16.3746 14.8063 16.4738 14.6463 16.565Z" fill="white"/>
<path d="M7.43541 14.6489L9.75041 13.302C9.63699 13.1056 9.54788 12.8949 9.48914 12.6782L6.90476 13.3749C6.85615 13.1987 6.81767 13.0185 6.78931 12.8382L4.09961 13.2656C4.16442 13.6787 4.26367 14.0899 4.39531 14.4868L6.94121 13.6544C7.02831 13.9177 7.13565 14.177 7.26122 14.4241L4.87735 15.6474C5.06774 16.018 5.28851 16.3785 5.5356 16.7147L7.73314 15.1086C7.62782 14.9608 7.52857 14.8069 7.43541 14.6489Z" fill="white"/>
<path d="M8.37891 19.1353C8.75158 19.3257 9.14247 19.4857 9.54147 19.6153L10.378 17.0249C10.1167 16.9399 9.85946 16.8346 9.61236 16.709L8.37891 19.1353Z" fill="white"/>
<path d="M9.345 16.6138L10.704 14.2542C10.5076 14.1408 10.3253 14.0011 10.1653 13.8411L6.35352 17.6669C6.64922 17.9626 6.97126 18.236 7.30747 18.4811L8.87916 16.312C9.02904 16.4193 9.18499 16.5206 9.345 16.6138Z" fill="white"/>
<path d="M16.6115 14.6572L14.254 13.2961C14.1406 13.4926 14.0008 13.6749 13.8408 13.8369L17.6647 17.6506C17.9604 17.3549 18.2339 17.0329 18.4789 16.6967L16.3118 15.123C16.4191 14.9711 16.5204 14.8172 16.6115 14.6572Z" fill="white"/>
<path d="M11.3296 14.5134L10.6309 17.1443C10.8091 17.1909 10.9914 17.2294 11.1737 17.2578L10.7625 19.9049C11.1696 19.9677 11.5848 20.0001 12 20.0001H12.0061V14.6005H12C11.7732 14.6005 11.5463 14.5701 11.3296 14.5134Z" fill="white"/>
<path d="M14.5998 11.9998C14.5998 12.2286 14.5714 12.4534 14.5127 12.6701L17.1437 13.3709C17.1902 13.1927 17.2287 13.0104 17.2571 12.8281L19.9043 13.2413C19.967 12.8342 19.9994 12.4149 19.9994 11.9998H14.5998Z" fill="white"/>
</g>
</g>
<defs>
<clipPath id="clip0_10113_10207">
<rect width="24" height="24" rx="6" fill="white"/>
</clipPath>
<clipPath id="clip1_10113_10207">
<rect width="24" height="24" fill="white"/>
</clipPath>
</defs>
</svg>
