<svg width="48" height="48" viewBox="0 0 48 48" fill="none" xmlns="http://www.w3.org/2000/svg">
<path d="M0 24C0 10.7452 10.7452 0 24 0C37.2548 0 48 10.7452 48 24C48 37.2548 37.2548 48 24 48C10.7452 48 0 37.2548 0 24Z" fill="#FFD886"/>
<path d="M0 24C0 10.7452 10.7452 0 24 0C37.2548 0 48 10.7452 48 24C48 37.2548 37.2548 48 24 48C10.7452 48 0 37.2548 0 24Z" fill="url(#paint0_radial_3932_11867)"/>
<path fill-rule="evenodd" clip-rule="evenodd" d="M24.0001 10C21.5174 9.99703 19.0791 10.6577 16.9376 11.9137H31.0616C28.9205 10.6579 26.4825 9.99721 24.0001 10ZM34.1353 14.3478C34.7004 14.9398 35.2126 15.5799 35.6662 16.2611H12.3328C12.6678 15.7654 13.0345 15.2918 13.4305 14.8434H13.4136C13.448 14.8042 13.4844 14.7677 13.5208 14.7313C13.5517 14.7003 13.5825 14.6695 13.6119 14.6372C13.6481 14.597 13.683 14.5557 13.718 14.5144C13.7658 14.4579 13.8136 14.4014 13.8646 14.3478H13.8884C14.3679 13.8374 14.8847 13.3633 15.4346 12.9296H23.1756C22.6255 13.3631 22.1086 13.8371 21.6294 14.3478H34.1353ZM37.5845 20.6074C37.4222 19.9553 37.2125 19.3158 36.9571 18.6942H18.7916C18.9875 18.2095 19.2102 17.736 19.4587 17.276H11.7177C11.4692 17.7359 11.2466 18.2094 11.0512 18.6942H11.0427C11.0292 18.7276 11.0171 18.7619 11.005 18.7963C10.9942 18.8272 10.9833 18.8582 10.9714 18.8884C10.9561 18.9266 10.9399 18.9647 10.9235 19.003L10.9235 19.003C10.8973 19.0644 10.8708 19.1263 10.848 19.1897H10.8604C10.6861 19.6539 10.5372 20.1271 10.4143 20.6074H37.5845ZM37.9641 23.0422H17.7856C17.8147 22.5672 17.8679 22.0941 17.9451 21.6245H10.2047C10.1271 22.094 10.0736 22.5672 10.0446 23.0422H10.0362C10.0322 23.099 10.0307 23.1559 10.0291 23.2121C10.028 23.254 10.0269 23.2955 10.0248 23.3366C10.0234 23.3686 10.0208 23.4002 10.0183 23.4319C10.0155 23.467 10.0127 23.5021 10.0114 23.5377H10.0174C10.0154 23.5874 10.0129 23.637 10.0104 23.6865C10.0052 23.7902 10 23.8938 10 23.9991C10 24.3207 10.0149 24.6393 10.0362 24.9554H37.9641C37.9854 24.6393 38.0003 24.3207 38.0003 23.9991C38.0003 23.6775 37.9854 23.3589 37.9641 23.0422ZM14.939 34.6664H22.68C23.3051 35.1974 23.9756 35.6726 24.6836 36.0866H31.0627C28.9212 37.3426 26.4829 38.0033 24.0002 38.0003C21.8754 38.0012 19.7785 37.5157 17.8704 36.5811H17.8575C17.8438 36.5739 17.8304 36.5664 17.8172 36.559L17.8171 36.559C17.8002 36.5495 17.7835 36.5402 17.7663 36.5316C17.7246 36.5109 17.6837 36.4887 17.6427 36.4666L17.6426 36.4666C17.6159 36.4521 17.5891 36.4376 17.5621 36.4235C17.3669 36.3225 17.1731 36.2194 16.9833 36.1094C16.979 36.1068 16.9747 36.1044 16.9703 36.102C16.9665 36.1 16.9627 36.0979 16.9588 36.0959L16.9587 36.0958C16.9515 36.0921 16.9443 36.0882 16.9372 36.0841H16.9427C16.2347 35.6709 15.5642 35.1965 14.939 34.6664ZM19.25 30.3196H11.509C11.761 30.8081 12.0413 31.2815 12.3486 31.7373H12.3337C12.3642 31.783 12.3972 31.8265 12.4302 31.87C12.4566 31.9049 12.483 31.9397 12.5081 31.9757C12.5332 32.0116 12.5581 32.0499 12.5832 32.0888L12.5832 32.0888L12.5832 32.0888C12.6147 32.1373 12.6466 32.1866 12.6801 32.2328H12.696C13.0544 32.7303 13.4448 33.2041 13.8645 33.651H34.1338C34.6988 33.0588 35.211 32.4185 35.6646 31.7373H20.0881C19.781 31.2817 19.5011 30.8083 19.25 30.3196ZM10.1408 25.972H17.8817C17.9518 26.4492 18.0471 26.9225 18.1672 27.3897H37.5846C37.4222 28.0418 37.2125 28.6812 36.9572 29.3029H11.0427C10.8562 28.8393 10.6945 28.3661 10.5586 27.8852H10.5506C10.5396 27.8473 10.5305 27.8086 10.5214 27.7698C10.5137 27.7371 10.5059 27.7043 10.4971 27.6721C10.4861 27.6317 10.474 27.5917 10.4619 27.5517C10.4457 27.4981 10.4294 27.4444 10.4158 27.3897H10.4262C10.3064 26.9224 10.2111 26.4492 10.1408 25.972Z" fill="#F9F9FF"/>
<circle cx="24" cy="24" r="21.5" stroke="white" stroke-opacity="0.5"/>
<defs>
<radialGradient id="paint0_radial_3932_11867" cx="0" cy="0" r="1" gradientUnits="userSpaceOnUse" gradientTransform="translate(24 24.0003) rotate(-116.867) scale(43.5093 36.5946)">
<stop stop-color="#FEF5E7"/>
<stop offset="0.344" stop-color="#FFC960"/>
<stop offset="1" stop-color="#FEF4D0"/>
</radialGradient>
</defs>
</svg>
