<svg width="1080" height="1080" viewBox="0 0 1080 1080" fill="none" xmlns="http://www.w3.org/2000/svg">
<g filter="url(#filter0_f_1671_7552)">
<path d="M256.865 503.705C256.806 503.699 256.749 503.683 256.695 503.66C162.42 461.827 90.7678 423.322 52.8294 394.107C14.8801 364.883 12.7816 346.583 46.8589 342.042C80.9362 337.5 149.288 346.971 241.329 368.986C333.37 391.002 443.965 424.334 555.987 463.821C668.01 503.308 775.208 546.747 860.983 587.411C946.758 628.074 1006.32 663.694 1030.45 688.753C1054.58 713.812 1041.93 726.913 994.461 726.027C947.003 725.14 867.39 710.325 767.946 683.873C767.89 683.858 767.835 683.834 767.786 683.802C767.239 683.453 767.626 682.61 768.253 682.776C864.751 708.298 942.002 722.583 988.272 723.447C1035.11 724.322 1047.59 711.396 1023.78 686.673C999.975 661.949 941.209 626.807 856.583 586.688C771.958 546.57 666.195 503.713 555.674 464.755C445.152 425.796 336.039 392.911 245.231 371.19C154.423 349.47 86.9872 340.126 53.3664 344.607C19.7457 349.087 21.8161 367.142 59.2569 395.974C96.25 424.462 165.733 461.901 257.143 502.615C257.734 502.878 257.508 503.775 256.865 503.705Z" fill="url(#paint0_linear_1671_7552)"/>
</g>
<g filter="url(#filter1_f_1671_7552)">
<circle cx="554.572" cy="540" r="330" fill="url(#paint1_radial_1671_7552)"/>
</g>
<g filter="url(#filter2_f_1671_7552)">
<circle cx="700.967" cy="742.393" r="64" transform="rotate(-115.644 700.967 742.393)" fill="url(#paint2_radial_1671_7552)"/>
</g>
<g filter="url(#filter3_f_1671_7552)">
<circle cx="703.446" cy="364.647" r="24" transform="rotate(-115.644 703.446 364.647)" fill="url(#paint3_radial_1671_7552)"/>
</g>
<g filter="url(#filter4_f_1671_7552)">
<circle cx="294.321" cy="583.321" r="24" transform="rotate(67.6605 294.321 583.321)" fill="url(#paint4_radial_1671_7552)"/>
</g>
<g filter="url(#filter5_f_1671_7552)">
<path d="M159.018 348.96C158.215 348.563 158.603 347.354 159.483 347.521C233.409 361.567 331.143 388.066 438.304 423.142C548.115 459.085 661.699 502.029 761.467 545.323C861.235 588.617 941.619 629.846 990.172 662.625C1038.72 695.404 1052.74 717.904 1030.04 726.64C1007.34 735.377 949.197 729.863 864.614 710.952C780.031 692.041 673.728 660.788 562.165 622.034C450.603 583.279 340.007 539.185 247.505 496.58C159.244 455.929 92.1543 418.797 55.5496 390.396C54.4388 389.534 55.3555 387.849 56.7003 388.259C56.8603 388.308 57.0051 388.384 57.1346 388.49C91.991 416.96 160.228 455.117 251.324 497.074C342.587 539.109 451.701 582.612 561.769 620.847C671.836 659.083 776.716 689.917 860.165 708.574C943.615 727.232 1000.98 732.672 1023.37 724.053C1045.77 715.433 1031.94 693.235 984.041 660.895C936.139 628.555 856.832 587.879 758.4 545.165C659.969 502.451 547.907 460.082 439.567 424.62C331.278 389.176 232.747 362.608 159.218 349.027C159.148 349.014 159.082 348.992 159.018 348.96Z" fill="url(#paint5_linear_1671_7552)"/>
</g>
<defs>
<filter id="filter0_f_1671_7552" x="21.7495" y="339.932" width="1021.65" height="387.137" filterUnits="userSpaceOnUse" color-interpolation-filters="sRGB">
<feFlood flood-opacity="0" result="BackgroundImageFix"/>
<feBlend mode="normal" in="SourceGraphic" in2="BackgroundImageFix" result="shape"/>
<feGaussianBlur stdDeviation="0.5" result="effect1_foregroundBlur_1671_7552"/>
</filter>
<filter id="filter1_f_1671_7552" x="144.572" y="130" width="820" height="820" filterUnits="userSpaceOnUse" color-interpolation-filters="sRGB">
<feFlood flood-opacity="0" result="BackgroundImageFix"/>
<feBlend mode="normal" in="SourceGraphic" in2="BackgroundImageFix" result="shape"/>
<feGaussianBlur stdDeviation="40" result="effect1_foregroundBlur_1671_7552"/>
</filter>
<filter id="filter2_f_1671_7552" x="632.952" y="674.379" width="136.03" height="136.029" filterUnits="userSpaceOnUse" color-interpolation-filters="sRGB">
<feFlood flood-opacity="0" result="BackgroundImageFix"/>
<feBlend mode="normal" in="SourceGraphic" in2="BackgroundImageFix" result="shape"/>
<feGaussianBlur stdDeviation="2" result="effect1_foregroundBlur_1671_7552"/>
</filter>
<filter id="filter3_f_1671_7552" x="675.441" y="336.643" width="56.0112" height="56.0098" filterUnits="userSpaceOnUse" color-interpolation-filters="sRGB">
<feFlood flood-opacity="0" result="BackgroundImageFix"/>
<feBlend mode="normal" in="SourceGraphic" in2="BackgroundImageFix" result="shape"/>
<feGaussianBlur stdDeviation="2" result="effect1_foregroundBlur_1671_7552"/>
</filter>
<filter id="filter4_f_1671_7552" x="266.315" y="555.314" width="56.0127" height="56.0137" filterUnits="userSpaceOnUse" color-interpolation-filters="sRGB">
<feFlood flood-opacity="0" result="BackgroundImageFix"/>
<feBlend mode="normal" in="SourceGraphic" in2="BackgroundImageFix" result="shape"/>
<feGaussianBlur stdDeviation="2" result="effect1_foregroundBlur_1671_7552"/>
</filter>
<filter id="filter5_f_1671_7552" x="54.0535" y="346.506" width="987.576" height="385.176" filterUnits="userSpaceOnUse" color-interpolation-filters="sRGB">
<feFlood flood-opacity="0" result="BackgroundImageFix"/>
<feBlend mode="normal" in="SourceGraphic" in2="BackgroundImageFix" result="shape"/>
<feGaussianBlur stdDeviation="0.5" result="effect1_foregroundBlur_1671_7552"/>
</filter>
<linearGradient id="paint0_linear_1671_7552" x1="128.806" y1="346.405" x2="147.627" y2="514.916" gradientUnits="userSpaceOnUse">
<stop stop-color="#FFDDAC"/>
<stop offset="1" stop-color="white" stop-opacity="0"/>
</linearGradient>
<radialGradient id="paint1_radial_1671_7552" cx="0" cy="0" r="1" gradientUnits="userSpaceOnUse" gradientTransform="translate(554.572 548.919) rotate(90) scale(321.081)">
<stop stop-color="white"/>
<stop offset="0.266145" stop-color="white"/>
<stop offset="0.595433" stop-color="#FFAE38"/>
<stop offset="0.616919" stop-color="#FF9560"/>
<stop offset="1" stop-color="#2F6280"/>
</radialGradient>
<radialGradient id="paint2_radial_1671_7552" cx="0" cy="0" r="1" gradientUnits="userSpaceOnUse" gradientTransform="translate(647.11 781.548) rotate(-40.4804) scale(133.417 112.048)">
<stop stop-color="#3D4F5A"/>
<stop offset="0.806024" stop-color="#101417"/>
<stop offset="0.928916" stop-color="#FEC378"/>
<stop offset="1" stop-color="white"/>
</radialGradient>
<radialGradient id="paint3_radial_1671_7552" cx="0" cy="0" r="1" gradientUnits="userSpaceOnUse" gradientTransform="translate(698.938 391.429) rotate(-76.8845) scale(48.7107 40.9091)">
<stop stop-color="#3D4F5A"/>
<stop offset="0.806024" stop-color="#101417"/>
<stop offset="0.928916" stop-color="#FEC378"/>
<stop offset="1" stop-color="white"/>
</radialGradient>
<radialGradient id="paint4_radial_1671_7552" cx="0" cy="0" r="1" gradientUnits="userSpaceOnUse" gradientTransform="translate(289.813 610.103) rotate(-76.8845) scale(48.7107 40.9091)">
<stop stop-color="#3D4F5A"/>
<stop offset="0.806024" stop-color="#101417"/>
<stop offset="0.928916" stop-color="#FEC378"/>
<stop offset="1" stop-color="white"/>
</radialGradient>
<linearGradient id="paint5_linear_1671_7552" x1="934.468" y1="724.58" x2="917.316" y2="555.891" gradientUnits="userSpaceOnUse">
<stop stop-color="#FFDDAC"/>
<stop offset="1" stop-color="white" stop-opacity="0"/>
</linearGradient>
</defs>
</svg>
