<svg width="960" height="960" viewBox="0 0 960 960" fill="none" xmlns="http://www.w3.org/2000/svg">
<g clip-path="url(#clip0_1874_7660)">
<g filter="url(#filter0_f_1874_7660)">
<circle cx="483" cy="482.5" r="402.5" fill="url(#paint0_radial_1874_7660)"/>
</g>
<circle cx="858.834" cy="648.029" r="4.025" fill="url(#paint1_radial_1874_7660)"/>
<circle cx="760.724" cy="512.687" r="4.025" fill="url(#paint2_radial_1874_7660)"/>
<circle cx="763.744" cy="307.916" r="4.025" fill="url(#paint3_radial_1874_7660)"/>
<circle cx="819.088" cy="349.171" r="4.025" fill="url(#paint4_radial_1874_7660)"/>
<circle cx="717.457" cy="377.347" r="4.025" fill="url(#paint5_radial_1874_7660)"/>
<circle cx="625.888" cy="267.666" r="4.025" fill="url(#paint6_radial_1874_7660)"/>
<circle cx="312.943" cy="324.519" r="4.025" fill="url(#paint7_radial_1874_7660)"/>
<!-- <circle cx="377.343" cy="253.578" r="4.025" fill="url(#paint8_radial_1874_7660)"/> -->
<circle cx="675.697" cy="221.379" r="4.025" fill="url(#paint9_radial_1874_7660)"/>
<circle cx="218.357" cy="369.296" r="4.025" fill="url(#paint10_radial_1874_7660)"/>
<circle cx="190.685" cy="303.89" r="4.025" fill="url(#paint11_radial_1874_7660)"/>
<circle cx="119.744" cy="381.373" r="4.025" fill="url(#paint12_radial_1874_7660)"/>
<circle cx="727.015" cy="730.541" r="4.025" fill="url(#paint13_radial_1874_7660)"/>
<circle cx="643.498" cy="591.175" r="4.025" fill="url(#paint14_radial_1874_7660)"/>
<circle cx="195.212" cy="531.302" r="4.025" fill="url(#paint15_radial_1874_7660)"/>
<circle cx="290.806" cy="516.713" r="4.025" fill="url(#paint16_radial_1874_7660)"/>
<circle cx="236.468" cy="772.802" r="4.025" fill="url(#paint17_radial_1874_7660)"/>
<circle cx="654.061" cy="699.849" r="2.0125" fill="url(#paint18_radial_1874_7660)"/>
<circle cx="755.692" cy="625.89" r="2.0125" fill="url(#paint19_radial_1874_7660)"/>
<circle cx="843.237" cy="526.775" r="2.0125" fill="url(#paint20_radial_1874_7660)"/>
<circle cx="253.575" cy="679.222" r="2.0125" fill="url(#paint21_radial_1874_7660)"/>
<circle cx="249.55" cy="616.332" r="2.0125" fill="url(#paint22_radial_1874_7660)"/>
<circle cx="152.95" cy="595.201" r="2.0125" fill="url(#paint23_radial_1874_7660)"/>
<path d="M642.601 422.303C642.691 422.271 642.772 422.216 642.835 422.144C665.818 396.11 684.15 371.91 696.738 350.984C709.343 330.029 715.929 312.788 716.103 300.293C716.276 287.797 710.033 280.302 697.747 278.257C685.496 276.217 667.485 279.638 644.787 288.315C644.663 288.363 644.552 288.441 644.465 288.542C643.92 289.174 644.589 290.122 645.372 289.833C666.45 282.05 683.242 279.034 694.822 280.962C706.943 282.98 713.102 290.374 712.931 302.702C712.76 315.03 706.262 332.04 693.825 352.714C681.653 372.95 664.036 396.29 641.99 421.394C641.606 421.831 642.053 422.497 642.601 422.303Z" fill="url(#paint24_linear_1874_7660)"/>
<path d="M394.445 329.429C394.398 329.346 394.33 329.276 394.248 329.226C364.619 311.112 337.602 297.262 314.809 288.499C291.983 279.724 273.861 276.232 261.525 278.231C249.189 280.23 242.892 287.679 243.011 300.134C243.13 312.553 249.627 329.696 262.113 350.542C262.182 350.656 262.278 350.753 262.392 350.821C263.11 351.248 263.927 350.424 263.506 349.703C252.182 330.297 246.295 314.283 246.183 302.545C246.066 290.258 252.278 282.908 264.449 280.936C276.619 278.964 294.499 282.409 317.019 291.067C339.06 299.54 365.105 312.837 393.656 330.189C394.153 330.491 394.731 329.935 394.445 329.429Z" fill="url(#paint25_linear_1874_7660)"/>
<path d="M565.307 630.575C565.354 630.658 565.422 630.728 565.504 630.778C595.133 648.891 622.15 662.742 644.943 671.505C667.769 680.28 685.891 683.772 698.227 681.773C710.563 679.774 716.86 672.325 716.741 659.87C716.622 647.451 710.125 630.308 697.639 609.462C697.57 609.348 697.474 609.251 697.36 609.183C696.642 608.756 695.825 609.58 696.246 610.301C707.57 629.707 713.456 645.721 713.569 657.459C713.686 669.746 707.474 677.096 695.303 679.068C683.133 681.04 665.253 677.595 642.733 668.937C620.691 660.464 594.647 647.167 566.096 629.815C565.598 629.513 565.02 630.069 565.307 630.575Z" fill="url(#paint26_linear_1874_7660)"/>
<path d="M316.151 537.973C316.061 538.004 315.98 538.059 315.917 538.131C292.934 564.165 274.602 588.366 262.014 609.291C249.409 630.247 242.823 647.487 242.649 659.983C242.476 672.479 248.719 679.973 261.005 682.018C273.256 684.058 291.267 680.637 313.965 671.96C314.089 671.912 314.2 671.834 314.287 671.734C314.832 671.101 314.163 670.153 313.38 670.443C292.302 678.225 275.509 681.241 263.93 679.314C251.809 677.296 245.65 669.902 245.821 657.573C245.992 645.245 252.49 628.235 264.927 607.561C277.099 587.325 294.716 563.985 316.762 538.881C317.146 538.444 316.699 537.778 316.151 537.973Z" fill="url(#paint27_linear_1874_7660)"/>
</g>
<defs>
<filter id="filter0_f_1874_7660" x="30.1875" y="29.6875" width="905.625" height="905.625" filterUnits="userSpaceOnUse" color-interpolation-filters="sRGB">
<feFlood flood-opacity="0" result="BackgroundImageFix"/>
<feBlend mode="normal" in="SourceGraphic" in2="BackgroundImageFix" result="shape"/>
<feGaussianBlur stdDeviation="25.1562" result="effect1_foregroundBlur_1874_7660"/>
</filter>
<radialGradient id="paint0_radial_1874_7660" cx="0" cy="0" r="1" gradientUnits="userSpaceOnUse" gradientTransform="translate(483 493.378) rotate(90) scale(391.622)">
<stop stop-color="white"/>
<stop offset="0.266145" stop-color="white"/>
<stop offset="0.595433" stop-color="#FFAE38"/>
<stop offset="0.616919" stop-color="#FF9560"/>
<stop offset="1" stop-color="#193749"/>
</radialGradient>
<radialGradient id="paint1_radial_1874_7660" cx="0" cy="0" r="1" gradientUnits="userSpaceOnUse" gradientTransform="translate(858.834 648.029) rotate(90) scale(4.025)">
<stop stop-color="white"/>
<stop offset="0.0001" stop-color="white"/>
<stop offset="0.287557" stop-color="white"/>
<stop offset="0.287657" stop-color="white" stop-opacity="0"/>
</radialGradient>
<radialGradient id="paint2_radial_1874_7660" cx="0" cy="0" r="1" gradientUnits="userSpaceOnUse" gradientTransform="translate(760.724 512.687) rotate(90) scale(4.025)">
<stop stop-color="white"/>
<stop offset="0.0001" stop-color="white"/>
<stop offset="0.287557" stop-color="white"/>
<stop offset="0.287657" stop-color="white" stop-opacity="0"/>
</radialGradient>
<radialGradient id="paint3_radial_1874_7660" cx="0" cy="0" r="1" gradientUnits="userSpaceOnUse" gradientTransform="translate(763.744 307.916) rotate(90) scale(4.025)">
<stop stop-color="white"/>
<stop offset="0.0001" stop-color="white"/>
<stop offset="0.287557" stop-color="white"/>
<stop offset="0.287657" stop-color="white" stop-opacity="0"/>
</radialGradient>
<radialGradient id="paint4_radial_1874_7660" cx="0" cy="0" r="1" gradientUnits="userSpaceOnUse" gradientTransform="translate(819.088 349.171) rotate(90) scale(4.025)">
<stop stop-color="white"/>
<stop offset="0.0001" stop-color="white"/>
<stop offset="0.287557" stop-color="white"/>
<stop offset="0.287657" stop-color="white" stop-opacity="0"/>
</radialGradient>
<radialGradient id="paint5_radial_1874_7660" cx="0" cy="0" r="1" gradientUnits="userSpaceOnUse" gradientTransform="translate(717.457 377.347) rotate(90) scale(4.025)">
<stop stop-color="white"/>
<stop offset="0.0001" stop-color="white"/>
<stop offset="0.287557" stop-color="white"/>
<stop offset="0.287657" stop-color="white" stop-opacity="0"/>
</radialGradient>
<radialGradient id="paint6_radial_1874_7660" cx="0" cy="0" r="1" gradientUnits="userSpaceOnUse" gradientTransform="translate(625.888 267.666) rotate(90) scale(4.025)">
<stop stop-color="white"/>
<stop offset="0.0001" stop-color="white"/>
<stop offset="0.287557" stop-color="white"/>
<stop offset="0.287657" stop-color="white" stop-opacity="0"/>
</radialGradient>
<radialGradient id="paint7_radial_1874_7660" cx="0" cy="0" r="1" gradientUnits="userSpaceOnUse" gradientTransform="translate(312.943 324.519) rotate(90) scale(4.025)">
<stop stop-color="white"/>
<stop offset="0.0001" stop-color="white"/>
<stop offset="0.287557" stop-color="white"/>
<stop offset="0.287657" stop-color="white" stop-opacity="0"/>
</radialGradient>
<radialGradient id="paint8_radial_1874_7660" cx="0" cy="0" r="1" gradientUnits="userSpaceOnUse" gradientTransform="translate(377.343 253.578) rotate(90) scale(4.025)">
<stop stop-color="white"/>
<stop offset="0.0001" stop-color="white"/>
<stop offset="0.287557" stop-color="white"/>
<stop offset="0.287657" stop-color="white" stop-opacity="0"/>
</radialGradient>
<radialGradient id="paint9_radial_1874_7660" cx="0" cy="0" r="1" gradientUnits="userSpaceOnUse" gradientTransform="translate(675.697 221.379) rotate(90) scale(4.025)">
<stop stop-color="white"/>
<stop offset="0.0001" stop-color="white"/>
<stop offset="0.287557" stop-color="white"/>
<stop offset="0.287657" stop-color="white" stop-opacity="0"/>
</radialGradient>
<radialGradient id="paint10_radial_1874_7660" cx="0" cy="0" r="1" gradientUnits="userSpaceOnUse" gradientTransform="translate(218.357 369.296) rotate(90) scale(4.025)">
<stop stop-color="white"/>
<stop offset="0.0001" stop-color="white"/>
<stop offset="0.287557" stop-color="white"/>
<stop offset="0.287657" stop-color="white" stop-opacity="0"/>
</radialGradient>
<radialGradient id="paint11_radial_1874_7660" cx="0" cy="0" r="1" gradientUnits="userSpaceOnUse" gradientTransform="translate(190.685 303.89) rotate(90) scale(4.025)">
<stop stop-color="white"/>
<stop offset="0.0001" stop-color="white"/>
<stop offset="0.287557" stop-color="white"/>
<stop offset="0.287657" stop-color="white" stop-opacity="0"/>
</radialGradient>
<radialGradient id="paint12_radial_1874_7660" cx="0" cy="0" r="1" gradientUnits="userSpaceOnUse" gradientTransform="translate(119.744 381.373) rotate(90) scale(4.025)">
<stop stop-color="white"/>
<stop offset="0.0001" stop-color="white"/>
<stop offset="0.287557" stop-color="white"/>
<stop offset="0.287657" stop-color="white" stop-opacity="0"/>
</radialGradient>
<radialGradient id="paint13_radial_1874_7660" cx="0" cy="0" r="1" gradientUnits="userSpaceOnUse" gradientTransform="translate(727.015 730.541) rotate(90) scale(4.025)">
<stop stop-color="white"/>
<stop offset="0.0001" stop-color="white"/>
<stop offset="0.287557" stop-color="white"/>
<stop offset="0.287657" stop-color="white" stop-opacity="0"/>
</radialGradient>
<radialGradient id="paint14_radial_1874_7660" cx="0" cy="0" r="1" gradientUnits="userSpaceOnUse" gradientTransform="translate(643.498 591.175) rotate(90) scale(4.025)">
<stop stop-color="white"/>
<stop offset="0.0001" stop-color="white"/>
<stop offset="0.287557" stop-color="white"/>
<stop offset="0.287657" stop-color="white" stop-opacity="0"/>
</radialGradient>
<radialGradient id="paint15_radial_1874_7660" cx="0" cy="0" r="1" gradientUnits="userSpaceOnUse" gradientTransform="translate(195.213 531.302) rotate(90) scale(4.025)">
<stop stop-color="white"/>
<stop offset="0.0001" stop-color="white"/>
<stop offset="0.287557" stop-color="white"/>
<stop offset="0.287657" stop-color="white" stop-opacity="0"/>
</radialGradient>
<radialGradient id="paint16_radial_1874_7660" cx="0" cy="0" r="1" gradientUnits="userSpaceOnUse" gradientTransform="translate(290.806 516.713) rotate(90) scale(4.025)">
<stop stop-color="white"/>
<stop offset="0.0001" stop-color="white"/>
<stop offset="0.287557" stop-color="white"/>
<stop offset="0.287657" stop-color="white" stop-opacity="0"/>
</radialGradient>
<radialGradient id="paint17_radial_1874_7660" cx="0" cy="0" r="1" gradientUnits="userSpaceOnUse" gradientTransform="translate(236.468 772.802) rotate(90) scale(4.025)">
<stop stop-color="white"/>
<stop offset="0.0001" stop-color="white"/>
<stop offset="0.287557" stop-color="white"/>
<stop offset="0.287657" stop-color="white" stop-opacity="0"/>
</radialGradient>
<radialGradient id="paint18_radial_1874_7660" cx="0" cy="0" r="1" gradientUnits="userSpaceOnUse" gradientTransform="translate(654.061 699.849) rotate(90) scale(2.0125)">
<stop stop-color="white"/>
<stop offset="0.0001" stop-color="white"/>
<stop offset="0.287557" stop-color="white"/>
<stop offset="0.287657" stop-color="white" stop-opacity="0"/>
</radialGradient>
<radialGradient id="paint19_radial_1874_7660" cx="0" cy="0" r="1" gradientUnits="userSpaceOnUse" gradientTransform="translate(755.692 625.89) rotate(90) scale(2.0125)">
<stop stop-color="white"/>
<stop offset="0.0001" stop-color="white"/>
<stop offset="0.287557" stop-color="white"/>
<stop offset="0.287657" stop-color="white" stop-opacity="0"/>
</radialGradient>
<radialGradient id="paint20_radial_1874_7660" cx="0" cy="0" r="1" gradientUnits="userSpaceOnUse" gradientTransform="translate(843.237 526.775) rotate(90) scale(2.0125)">
<stop stop-color="white"/>
<stop offset="0.0001" stop-color="white"/>
<stop offset="0.287557" stop-color="white"/>
<stop offset="0.287657" stop-color="white" stop-opacity="0"/>
</radialGradient>
<radialGradient id="paint21_radial_1874_7660" cx="0" cy="0" r="1" gradientUnits="userSpaceOnUse" gradientTransform="translate(253.575 679.222) rotate(90) scale(2.0125)">
<stop stop-color="white"/>
<stop offset="0.0001" stop-color="white"/>
<stop offset="0.287557" stop-color="white"/>
<stop offset="0.287657" stop-color="white" stop-opacity="0"/>
</radialGradient>
<radialGradient id="paint22_radial_1874_7660" cx="0" cy="0" r="1" gradientUnits="userSpaceOnUse" gradientTransform="translate(249.55 616.332) rotate(90) scale(2.0125)">
<stop stop-color="white"/>
<stop offset="0.0001" stop-color="white"/>
<stop offset="0.287557" stop-color="white"/>
<stop offset="0.287657" stop-color="white" stop-opacity="0"/>
</radialGradient>
<radialGradient id="paint23_radial_1874_7660" cx="0" cy="0" r="1" gradientUnits="userSpaceOnUse" gradientTransform="translate(152.95 595.201) rotate(90) scale(2.0125)">
<stop stop-color="white"/>
<stop offset="0.0001" stop-color="white"/>
<stop offset="0.287557" stop-color="white"/>
<stop offset="0.287657" stop-color="white" stop-opacity="0"/>
</radialGradient>
<linearGradient id="paint24_linear_1874_7660" x1="643.403" y1="288.777" x2="643.156" y2="429.599" gradientUnits="userSpaceOnUse">
<stop stop-color="#FFDDAC"/>
<stop offset="0.0838498" stop-color="white"/>
<stop offset="1" stop-color="white" stop-opacity="0"/>
</linearGradient>
<linearGradient id="paint25_linear_1874_7660" x1="262.809" y1="351.826" x2="401.535" y2="327.616" gradientUnits="userSpaceOnUse">
<stop stop-color="#FFDDAC"/>
<stop offset="0.0838498" stop-color="white"/>
<stop offset="1" stop-color="white" stop-opacity="0"/>
</linearGradient>
<linearGradient id="paint26_linear_1874_7660" x1="696.943" y1="608.178" x2="558.217" y2="632.388" gradientUnits="userSpaceOnUse">
<stop stop-color="#FFDDAC"/>
<stop offset="0.0838498" stop-color="white"/>
<stop offset="1" stop-color="white" stop-opacity="0"/>
</linearGradient>
<linearGradient id="paint27_linear_1874_7660" x1="315.349" y1="671.499" x2="315.596" y2="530.676" gradientUnits="userSpaceOnUse">
<stop stop-color="#FFDDAC"/>
<stop offset="0.0838498" stop-color="white"/>
<stop offset="1" stop-color="white" stop-opacity="0"/>
</linearGradient>
<clipPath id="clip0_1874_7660">
<rect width="960" height="960" fill="white"/>
</clipPath>
</defs>
</svg>
