<svg width="256" height="257" viewBox="0 0 256 257" fill="none" xmlns="http://www.w3.org/2000/svg">
<path fill-rule="evenodd" clip-rule="evenodd" d="M128 9.18261e-05C105.301 -0.0271642 83.0077 6.01369 63.4287 17.497H192.561C172.985 6.01525 150.695 -0.0255485 128 9.18261e-05ZM220.664 39.7515C225.83 45.1634 230.513 51.0165 234.66 57.2439H21.3281C24.3911 52.7119 27.7433 48.3823 31.3641 44.2821H31.21C31.5238 43.9243 31.8574 43.5903 32.1902 43.2572L32.1904 43.257C32.4727 42.9744 32.7543 42.6926 33.0225 42.3973C33.3535 42.0301 33.673 41.6523 33.9926 41.2747L33.9927 41.2745L33.9928 41.2745L33.9928 41.2744L33.9929 41.2744C34.4301 40.7576 34.8672 40.241 35.3331 39.7515H35.5507C39.9345 35.0845 44.6598 30.7504 49.6874 26.7852H120.461C115.432 30.748 110.706 35.0823 106.325 39.7515H220.664ZM252.199 96.9822C250.714 91.0197 248.797 85.1735 246.463 79.4898H80.3796C82.1702 75.0579 84.2063 70.729 86.4783 66.5234H15.7046C13.4322 70.7282 11.3978 75.0571 9.61054 79.4898H9.53338C9.40936 79.7951 9.29917 80.1091 9.18891 80.4234C9.08971 80.7061 8.99045 80.989 8.88101 81.2658C8.7416 81.6143 8.5928 81.9628 8.44311 82.3133C8.20359 82.8742 7.96182 83.4404 7.75269 84.0204H7.86607C6.27299 88.2639 4.91158 92.5909 3.78809 96.9822H252.199ZM255.669 119.243H71.1817C71.4479 114.901 71.9346 110.574 72.6405 106.281H1.87141C1.16181 110.574 0.673344 114.9 0.407909 119.243H0.330752C0.294379 119.763 0.280337 120.282 0.266433 120.797C0.256089 121.179 0.245822 121.559 0.226493 121.934C0.213583 122.227 0.190476 122.516 0.167343 122.806C0.141765 123.127 0.116155 123.448 0.104259 123.774H0.158739C0.141148 124.228 0.118323 124.681 0.0954933 125.134C0.0477589 126.081 0 127.029 0 127.992C0 130.932 0.13592 133.845 0.330752 136.735H255.669C255.864 133.845 256 130.932 256 127.992C256 125.051 255.864 122.138 255.669 119.243ZM45.1562 225.521H115.93C121.645 230.376 127.775 234.721 134.249 238.506H192.571C172.992 249.989 150.699 256.03 128.001 256.003C108.574 256.011 89.4029 251.573 71.9569 243.027H71.8391C71.7651 242.989 71.6924 242.949 71.6204 242.909C71.5702 242.881 71.5203 242.853 71.4705 242.825C71.3161 242.739 71.163 242.653 71.0055 242.574C70.6244 242.385 70.2498 242.183 69.8749 241.98C69.6304 241.848 69.3857 241.715 69.1388 241.587C67.3536 240.662 65.5819 239.72 63.8465 238.714C63.774 238.671 63.6988 238.631 63.6232 238.591L63.6229 238.591C63.5569 238.556 63.4905 238.521 63.4251 238.483H63.4751C57.0023 234.706 50.8725 230.368 45.1562 225.521ZM84.5707 185.779H13.7969C16.1005 190.246 18.6635 194.574 21.4725 198.741H21.3364C21.6156 199.159 21.9171 199.557 22.2184 199.954L22.2186 199.954C22.4601 200.273 22.7015 200.592 22.9313 200.92C23.1609 201.249 23.3879 201.599 23.6178 201.955C23.905 202.398 24.1967 202.849 24.5037 203.272H24.6486C27.926 207.82 31.4947 212.151 35.3326 216.238H220.649C225.815 210.824 230.498 204.969 234.646 198.741H92.2327C89.4251 194.576 86.8665 190.247 84.5707 185.779ZM1.28711 146.029H72.0609C72.7015 150.393 73.5726 154.72 74.6707 158.991H252.199C250.715 164.954 248.797 170.8 246.463 176.483H9.53351C7.82759 172.245 6.34994 167.918 5.1068 163.522H5.03434C4.93363 163.175 4.85019 162.821 4.76674 162.467C4.69625 162.167 4.62576 161.868 4.54485 161.574C4.4442 161.204 4.33361 160.838 4.223 160.473C4.0747 159.982 3.92634 159.492 3.80177 158.991H3.8969C2.80101 154.719 1.92992 150.393 1.28711 146.029Z" fill="#F9F9FF"/>
<style>path{fill:#ccc;}@media(prefers-color-scheme:dark){path{fill:#fff;}}</style>
</svg>
