<svg width="320" height="320" viewBox="0 0 320 320" fill="none" xmlns="http://www.w3.org/2000/svg">
<circle cx="158.518" cy="145.238" r="96" fill="url(#paint0_radial_1724_7507)"/>
<circle cx="158.518" cy="145.238" r="84.3333" stroke="white" stroke-width="2"/>
<path d="M202.057 142.652H139.852C139.942 141.192 140.106 139.738 140.344 138.295H116.483C116.243 139.738 116.079 141.192 115.989 142.652H115.963C115.942 142.956 115.943 143.261 115.928 143.556C115.919 143.763 115.894 143.966 115.887 144.174H115.905C115.887 144.647 115.852 145.114 115.852 145.592C115.852 146.581 115.897 147.56 115.963 148.531H202.057C202.122 147.56 202.168 146.581 202.168 145.592C202.168 144.604 202.122 143.625 202.057 142.652Z" fill="white"/>
<path d="M200.887 135.168C200.386 133.163 199.74 131.198 198.952 129.288H142.954C143.557 127.798 144.244 126.343 145.01 124.93H121.147C120.381 126.343 119.695 127.798 119.092 129.288H119.066C118.987 129.483 118.924 129.688 118.846 129.885C118.724 130.189 118.58 130.494 118.466 130.811H118.504C117.967 132.237 117.508 133.692 117.129 135.168H200.887Z" fill="white"/>
<path d="M194.973 121.81C193.575 119.717 191.996 117.75 190.254 115.931H151.702C153.179 114.361 154.772 112.904 156.468 111.572H132.605C130.91 112.905 129.317 114.362 127.838 115.931H127.765C127.493 116.215 127.25 116.527 126.986 116.82C126.789 117.036 126.57 117.231 126.375 117.453H126.427C125.206 118.832 124.076 120.287 123.043 121.81H194.973Z" fill="white"/>
<path d="M159.01 102.57C151.356 102.561 143.84 104.592 137.238 108.451H180.779C174.178 104.592 166.662 102.562 159.01 102.57Z" fill="white"/>
<path d="M154.94 178.373H131.077C133.005 180.002 135.071 181.46 137.254 182.73H137.237C137.284 182.757 137.333 182.78 137.379 182.807C137.964 183.146 138.562 183.462 139.163 183.773C139.374 183.883 139.581 184 139.793 184.105C139.888 184.152 139.978 184.207 140.074 184.257H140.114C145.996 187.129 152.46 188.621 159.01 188.618C166.664 188.628 174.18 186.597 180.782 182.737H161.117C158.934 181.465 156.867 180.005 154.94 178.373Z" fill="white"/>
<path d="M144.366 165.014H120.503C121.28 166.515 122.144 167.97 123.091 169.37H123.045C123.215 169.623 123.409 169.855 123.583 170.103C123.757 170.351 123.927 170.637 124.113 170.893H124.162C125.267 172.422 126.47 173.878 127.764 175.251H190.248C191.99 173.432 193.569 171.464 194.967 169.37H146.949C146.003 167.97 145.14 166.515 144.366 165.014Z" fill="white"/>
<path d="M140.148 151.654H116.285C116.502 153.121 116.796 154.575 117.165 156.011H117.133C117.206 156.305 117.304 156.588 117.384 156.879C117.443 157.095 117.486 157.319 117.549 157.534H117.573C117.992 159.012 118.49 160.466 119.066 161.891H198.952C199.739 159.98 200.386 158.015 200.886 156.011H141.028C140.658 154.575 140.364 153.121 140.148 151.654Z" fill="white"/>
<path d="M52.5831 211.926C52.3591 212.045 52.167 212.22 52.0273 212.432C35.9575 236.791 27.0018 256.972 26.4032 270.181C25.8019 283.449 33.662 289.022 48.8874 286.122C64.1129 283.223 85.9447 271.996 111.339 254.007C136.733 236.017 164.423 212.163 190.549 185.769C216.674 159.376 239.933 131.758 257.081 106.769C274.229 81.7792 284.412 60.6627 286.21 46.3639C288.008 32.0651 281.331 25.2967 267.111 27.0026C252.951 28.7011 232.014 38.7178 207.199 55.6629C206.992 55.8042 206.823 55.9975 206.711 56.2217C206.031 57.5827 207.621 58.9729 208.891 58.1342C230.435 43.902 248.607 35.4931 261.155 33.9878C274.61 32.3738 280.928 38.778 279.226 52.3073C277.525 65.8366 267.89 85.8167 251.665 109.462C235.439 133.106 213.433 159.237 188.713 184.211C163.993 209.184 137.793 231.755 113.766 248.776C89.738 265.797 69.081 276.42 54.6749 279.163C40.2688 281.907 32.8317 276.634 33.4006 264.08C33.9281 252.441 41.3124 235.082 54.604 214.138C55.4469 212.81 53.9724 211.189 52.5831 211.926Z" fill="white"/>
<path d="M104.491 54.9469C104.375 54.7291 104.204 54.5424 103.998 54.4068C80.4437 38.9113 60.9409 30.2924 48.1706 29.7378C35.3431 29.1808 29.943 36.7879 32.7179 51.5058C35.4929 66.2237 46.3056 87.3243 63.659 111.886C81.0123 136.447 104.048 163.254 129.575 188.595C155.103 213.936 181.86 236.556 206.141 253.325C230.422 270.093 251.026 280.18 265.1 282.187C279.175 284.195 286.022 278.025 284.695 264.531C283.374 251.096 274.014 231.062 257.904 207.183C257.767 206.98 257.58 206.814 257.362 206.703C256.03 206.021 254.649 207.578 255.466 208.832C268.922 229.488 276.732 246.819 277.901 258.698C279.156 271.466 272.677 277.304 259.36 275.404C246.044 273.504 226.548 263.961 203.574 248.095C180.599 232.229 155.282 210.825 131.128 186.848C106.974 162.871 85.1786 137.507 68.7591 114.267C52.3396 91.0272 42.1087 71.0621 39.4831 57.1362C36.8575 43.2103 41.967 36.0126 54.1042 36.5397C65.3479 37.028 82.1072 44.1232 102.339 56.9199C103.634 57.7394 105.212 56.2997 104.491 54.9469Z" fill="white"/>
<defs>
<radialGradient id="paint0_radial_1724_7507" cx="0" cy="0" r="1" gradientUnits="userSpaceOnUse" gradientTransform="translate(158.518 145.238) rotate(138.633) scale(119.033)">
<stop stop-color="#FFBF3A"/>
<stop offset="1" stop-color="#FFEABE"/>
</radialGradient>
</defs>
</svg>
