<svg width="320" height="320" viewBox="0 0 320 320" fill="none" xmlns="http://www.w3.org/2000/svg">
<g clip-path="url(#clip0_1724_7506)">
<path d="M166 140.058C205.765 140.058 238 127.681 238 112.413V94.1816L94 94.1816V112.413C94 127.681 126.235 140.058 166 140.058Z" fill="url(#paint0_radial_1724_7506)"/>
<path d="M166 123.673C205.765 123.673 238 110.763 238 94.8366C238 78.9106 205.765 66 166 66C126.235 66 94 78.9106 94 94.8366C94 110.763 126.235 123.673 166 123.673Z" fill="url(#paint1_radial_1724_7506)"/>
<path opacity="0.5" d="M225.943 93.7493C225.943 96.709 224.383 99.6064 221.396 102.319C218.41 105.031 214.053 107.503 208.614 109.593C197.739 113.77 182.673 116.368 166 116.368C149.327 116.368 134.261 113.77 123.386 109.593C117.947 107.503 113.589 105.031 110.603 102.319C107.617 99.6064 106.058 96.709 106.058 93.7493C106.058 90.7889 107.617 87.8915 110.603 85.1789C113.589 82.4669 117.947 79.9949 123.386 77.9048C134.261 73.7275 149.327 71.1309 166 71.1309C182.673 71.1309 197.739 73.7281 208.614 77.9062C214.053 79.9955 218.41 82.4676 221.396 85.1795C224.383 87.8928 225.943 90.7896 225.943 93.7499V93.7493Z" stroke="url(#paint2_linear_1724_7506)" stroke-width="2"/>
<path fill-rule="evenodd" clip-rule="evenodd" d="M149.86 81.2055C150.803 80.927 151.777 80.6726 152.779 80.4434C153.679 80.2393 154.602 80.0571 155.547 79.8968C158.946 79.316 162.538 79.0197 166.158 79.0215C171.929 79.0182 177.586 79.7752 182.479 81.2055H149.86ZM163.595 83.452H188.397C189.112 83.7998 189.789 84.1637 190.429 84.5438H141.884C143.23 83.7432 144.754 83.0114 146.43 82.3603H166.072C165.204 82.7027 164.377 83.0671 163.595 83.452ZM137.688 87.8826H194.632C194.299 87.508 193.929 87.1446 193.531 86.7909H158.431C158.85 86.4183 159.289 86.0523 159.771 85.6991H140.128C139.183 86.3931 138.367 87.1236 137.688 87.8826ZM196.649 91.2179H135.677C135.919 90.4779 136.284 89.7478 136.77 89.0345H156.412C156.166 89.3917 155.962 89.7577 155.775 90.1262H196.191C196.367 90.4855 196.526 90.8489 196.649 91.2179ZM154.94 93.4656V93.4416C154.94 93.0823 154.976 92.7266 155.03 92.3739H135.389C135.333 92.7271 135.297 93.0843 135.297 93.4416C135.297 93.8178 135.337 94.1888 135.397 94.5573H196.912C196.972 94.1965 197.012 93.8331 197.012 93.4656H154.94ZM155.808 96.8009H196.161C195.972 97.1704 195.754 97.5343 195.506 97.8926H136.797C136.307 97.1794 135.938 96.4493 135.692 95.7092H155.335C155.459 96.0787 155.625 96.4416 155.808 96.8009ZM140.199 101.231H192.119C192.607 100.878 193.061 100.514 193.483 100.14H158.499C158.097 99.7835 157.715 99.4216 157.377 99.048H137.735C138.421 99.8075 139.246 100.538 140.199 101.231ZM161.602 102.384C162.256 102.765 162.952 103.129 163.686 103.476H188.301C187.504 103.861 186.662 104.226 185.779 104.568H146.555C144.862 103.918 143.322 103.186 141.96 102.384H161.602ZM172.42 106.437C171.476 106.22 170.556 105.982 169.664 105.722H150.022C150.914 105.982 151.834 106.22 152.778 106.437C153.676 106.639 154.599 106.821 155.546 106.983C158.945 107.564 162.537 107.86 166.156 107.858C170.108 107.859 174.023 107.505 177.687 106.814H174.268C173.643 106.696 173.024 106.572 172.42 106.437Z" fill="#F9F9FF"/>
<path d="M166 121.058C205.765 121.058 238 108.681 238 93.4126V75.1816L94 75.1816V93.4126C94 108.681 126.235 121.058 166 121.058Z" fill="url(#paint3_radial_1724_7506)"/>
<path d="M166 104.673C205.765 104.673 238 91.7627 238 75.8366C238 59.9106 205.765 47 166 47C126.235 47 94 59.9106 94 75.8366C94 91.7627 126.235 104.673 166 104.673Z" fill="url(#paint4_radial_1724_7506)"/>
<path opacity="0.5" d="M225.943 74.7493C225.943 77.709 224.383 80.6064 221.396 83.319C218.41 86.031 214.053 88.503 208.614 90.593C197.739 94.7704 182.673 97.3677 166 97.3677C149.327 97.3677 134.261 94.7704 123.386 90.593C117.947 88.503 113.589 86.031 110.603 83.319C107.617 80.6064 106.058 77.709 106.058 74.7493C106.058 71.7889 107.617 68.8915 110.603 66.1789C113.589 63.4669 117.947 60.9949 123.386 58.9048C134.261 54.7275 149.327 52.1309 166 52.1309C182.673 52.1309 197.739 54.7281 208.614 58.9062C214.053 60.9955 218.41 63.4676 221.396 66.1795C224.383 68.8928 225.943 71.7896 225.943 74.7499V74.7493Z" stroke="url(#paint5_linear_1724_7506)" stroke-width="2"/>
<path fill-rule="evenodd" clip-rule="evenodd" d="M149.86 62.2055C150.803 61.927 151.777 61.6726 152.779 61.4434C153.679 61.2393 154.602 61.0571 155.547 60.8968C158.946 60.316 162.538 60.0197 166.158 60.0215C171.929 60.0182 177.586 60.7752 182.479 62.2055L149.86 62.2055ZM163.595 64.452H188.397C189.112 64.7998 189.789 65.1637 190.429 65.5438H141.884C143.23 64.7432 144.754 64.0114 146.43 63.3603H166.072C165.204 63.7027 164.377 64.0671 163.595 64.452ZM137.688 68.8826H194.632C194.299 68.508 193.929 68.1446 193.531 67.7909H158.431C158.85 67.4183 159.289 67.0523 159.771 66.6991H140.128C139.183 67.3931 138.367 68.1236 137.688 68.8826ZM196.649 72.2179H135.677C135.919 71.4779 136.284 70.7478 136.77 70.0345H156.412C156.166 70.3917 155.962 70.7577 155.775 71.1262H196.191C196.367 71.4855 196.526 71.8489 196.649 72.2179ZM154.94 74.4656V74.4416C154.94 74.0823 154.976 73.7266 155.03 73.3739H135.389C135.333 73.7271 135.297 74.0843 135.297 74.4416C135.297 74.8178 135.337 75.1888 135.397 75.5573H196.912C196.972 75.1965 197.012 74.8331 197.012 74.4656H154.94ZM155.808 77.8009H196.161C195.972 78.1704 195.754 78.5343 195.506 78.8926H136.797C136.307 78.1794 135.938 77.4493 135.692 76.7092H155.335C155.459 77.0787 155.625 77.4416 155.808 77.8009ZM140.199 82.2314H192.119C192.607 81.8779 193.061 81.514 193.483 81.1397H158.499C158.097 80.7835 157.715 80.4216 157.377 80.048H137.735C138.421 80.8075 139.246 81.538 140.199 82.2314ZM161.602 83.3845C162.256 83.7649 162.952 84.1293 163.686 84.4762H188.301C187.504 84.8614 186.662 85.2259 185.779 85.5679H146.555C144.862 84.9181 143.322 84.1862 141.96 83.3845H161.602ZM172.42 87.4367C171.476 87.2205 170.556 86.982 169.664 86.7221H150.022C150.914 86.982 151.834 87.2205 152.778 87.4367C153.676 87.6391 154.599 87.8214 155.546 87.9833C158.945 88.5639 162.537 88.8601 166.156 88.8581C170.108 88.8595 174.023 88.5049 177.687 87.8139H174.268C173.643 87.696 173.024 87.5724 172.42 87.4367Z" fill="#F9F9FF"/>
<path d="M166 102.058C205.765 102.058 238 89.6806 238 74.4126V56.1816L94 56.1816V74.4126C94 89.6806 126.235 102.058 166 102.058Z" fill="url(#paint6_radial_1724_7506)"/>
<path d="M166 85.6733C205.765 85.6733 238 72.7627 238 56.8366C238 40.9106 205.765 28 166 28C126.235 28 94 40.9106 94 56.8366C94 72.7627 126.235 85.6733 166 85.6733Z" fill="url(#paint7_radial_1724_7506)"/>
<path opacity="0.5" d="M225.943 55.7493C225.943 58.709 224.383 61.6064 221.396 64.319C218.41 67.031 214.053 69.503 208.614 71.593C197.739 75.7704 182.673 78.3677 166 78.3677C149.327 78.3677 134.261 75.7704 123.386 71.593C117.947 69.503 113.589 67.031 110.603 64.319C107.617 61.6064 106.058 58.709 106.058 55.7493C106.058 52.7889 107.617 49.8915 110.603 47.1789C113.589 44.4669 117.947 41.9949 123.386 39.9048C134.261 35.7275 149.327 33.1309 166 33.1309C182.673 33.1309 197.739 35.7281 208.614 39.9062C214.053 41.9955 218.41 44.4676 221.396 47.1795C224.383 49.8928 225.943 52.7896 225.943 55.7499V55.7493Z" stroke="url(#paint8_linear_1724_7506)" stroke-width="2"/>
<path fill-rule="evenodd" clip-rule="evenodd" d="M149.86 43.2055C150.803 42.927 151.777 42.6726 152.779 42.4434C153.679 42.2393 154.602 42.0571 155.547 41.8968C158.946 41.316 162.538 41.0197 166.158 41.0215C171.929 41.0182 177.586 41.7752 182.479 43.2055L149.86 43.2055ZM163.595 45.452L188.397 45.452C189.112 45.7998 189.789 46.1637 190.429 46.5438L141.884 46.5438C143.23 45.7432 144.754 45.0114 146.43 44.3603H166.072C165.204 44.7027 164.377 45.0671 163.595 45.452ZM137.688 49.8826L194.632 49.8826C194.299 49.508 193.929 49.1446 193.531 48.7909L158.431 48.7909C158.85 48.4183 159.289 48.0523 159.771 47.6991H140.128C139.183 48.3931 138.367 49.1236 137.688 49.8826ZM196.649 53.2179L135.677 53.2179C135.919 52.4779 136.284 51.7478 136.77 51.0345H156.412C156.166 51.3917 155.962 51.7577 155.775 52.1262L196.191 52.1262C196.367 52.4855 196.526 52.8489 196.649 53.2179ZM154.94 55.4656V55.4416C154.94 55.0823 154.976 54.7266 155.03 54.3739H135.389C135.333 54.7271 135.297 55.0843 135.297 55.4416C135.297 55.8178 135.337 56.1888 135.397 56.5573L196.912 56.5573C196.972 56.1965 197.012 55.8331 197.012 55.4656L154.94 55.4656ZM155.808 58.8009L196.161 58.8009C195.972 59.1704 195.754 59.5343 195.506 59.8926L136.797 59.8926C136.307 59.1794 135.938 58.4493 135.692 57.7092H155.335C155.459 58.0787 155.625 58.4416 155.808 58.8009ZM140.199 63.2314L192.119 63.2314C192.607 62.8779 193.061 62.514 193.483 62.1397L158.499 62.1397C158.097 61.7835 157.715 61.4216 157.377 61.048H137.735C138.421 61.8075 139.246 62.538 140.199 63.2314ZM161.602 64.3845C162.256 64.7649 162.952 65.1293 163.686 65.4762H188.301C187.504 65.8614 186.662 66.2259 185.779 66.5679H146.555C144.862 65.9181 143.322 65.1862 141.96 64.3845H161.602ZM172.42 68.4367C171.476 68.2205 170.556 67.982 169.664 67.7221H150.022C150.914 67.982 151.834 68.2205 152.778 68.4367C153.676 68.6391 154.599 68.8214 155.546 68.9833C158.945 69.5639 162.537 69.8601 166.156 69.8581C170.108 69.8595 174.023 69.5049 177.687 68.8139H174.268C173.643 68.696 173.024 68.5724 172.42 68.4367Z" fill="#F9F9FF"/>
<path d="M82.9672 200.515C128.883 227.024 174.357 234.222 184.536 216.592L196.69 195.541L30.4131 99.541L18.2591 120.592C8.08044 138.222 37.051 174.005 82.9672 200.515Z" fill="url(#paint9_radial_1724_7506)"/>
<path d="M93.8898 181.595C139.806 208.105 185.635 214.687 196.253 196.298C206.87 177.908 178.255 141.51 132.339 115C86.4225 88.4903 40.5931 81.9079 29.9758 100.298C19.3584 118.687 47.9737 155.086 93.8898 181.595Z" fill="url(#paint10_radial_1724_7506)"/>
<path opacity="0.5" d="M183.055 187.004C181.082 190.421 177.349 192.727 172.092 193.868C166.836 195.009 160.156 194.959 152.482 193.746C137.141 191.32 118.012 184.275 98.76 173.16C79.5075 162.044 63.8423 149.001 54.0703 136.928C49.1823 130.888 45.799 125.128 44.1589 120.006C42.5186 114.883 42.6501 110.498 44.6232 107.08C46.5968 103.662 50.3285 101.356 55.5856 100.215C60.8416 99.0738 67.5211 99.1241 75.1958 100.337C90.5376 102.763 109.665 109.809 128.918 120.925C148.17 132.04 163.836 145.083 173.607 157.157C178.495 163.196 181.878 168.955 183.518 174.077C185.158 179.202 185.028 183.586 183.054 187.005L183.055 187.004Z" stroke="url(#paint11_linear_1724_7506)" stroke-width="2"/>
<path fill-rule="evenodd" clip-rule="evenodd" d="M103.566 121.798C104.84 122.104 106.134 122.46 107.444 122.864C108.619 123.228 109.806 123.633 111.004 124.078C115.317 125.673 119.662 127.726 123.84 130.141C130.507 133.985 136.534 138.63 141.231 143.544L103.566 121.798ZM117.927 133.548L146.566 150.083C147.16 150.961 147.7 151.833 148.185 152.698L92.1294 120.335C94.2182 120.308 96.4658 120.479 98.8347 120.844L121.516 133.939C120.285 133.756 119.087 133.625 117.927 133.548ZM85.059 121.393L150.812 159.356C150.677 158.701 150.492 158.034 150.269 157.361L109.739 133.961C110.47 133.81 111.222 133.68 112.013 133.593L89.3324 120.499C87.7783 120.67 86.3486 120.969 85.059 121.393ZM150.917 164.551L80.5136 123.904C81.2859 123.21 82.1943 122.611 83.2305 122.111L105.911 135.205C105.389 135.454 104.91 135.741 104.448 136.042L151.117 162.986C151.08 163.518 151.022 164.044 150.917 164.551ZM101.258 139.341L101.274 139.313C101.513 138.898 101.792 138.512 102.089 138.14L79.4095 125.046C79.1098 125.417 78.83 125.805 78.5918 126.218C78.341 126.652 78.1403 127.107 77.964 127.573L148.995 168.583C149.305 168.206 149.593 167.813 149.838 167.389L101.258 139.341ZM100.036 143.771L146.633 170.673C146.168 170.973 145.673 171.248 145.148 171.497L77.3563 132.357C77.2665 131.207 77.3268 130.118 77.5368 129.1L100.218 142.195C100.115 142.704 100.065 143.234 100.036 143.771ZM79.0596 138.481L139.011 173.094C139.81 173.011 140.578 172.894 141.314 172.743L100.918 149.42C100.692 148.741 100.491 148.068 100.351 147.412L77.6697 134.317C77.9555 135.651 78.4205 137.044 79.0596 138.481ZM103.005 154.081C103.506 154.956 104.066 155.84 104.682 156.73L133.106 173.141C131.929 173.054 130.713 172.914 129.466 172.72L84.1735 146.57C82.6525 144.692 81.3622 142.82 80.3241 140.986L103.005 154.081ZM112.794 165.972C111.848 165.093 110.945 164.204 110.088 163.309L87.4075 150.215C88.2644 151.109 89.1676 151.998 90.1134 152.877C91.0161 153.71 91.96 154.535 92.9452 155.353C96.4835 158.29 100.434 161.027 104.614 163.438C109.176 166.073 113.933 168.274 118.625 169.919L114.677 167.639C114.034 167.087 113.401 166.531 112.794 165.972Z" fill="#F9F9FF"/>
<path d="M199.419 269.426C260.641 234.08 299.268 186.37 285.697 162.863L269.492 134.795L47.7891 262.795L63.9944 290.863C77.5659 314.37 138.198 304.773 199.419 269.426Z" fill="url(#paint12_radial_1724_7506)"/>
<path d="M184.856 244.2C246.077 208.854 284.231 160.323 270.074 135.803C255.918 111.283 194.812 120.06 133.591 155.406C72.3691 190.752 34.2154 239.283 48.3718 263.803C62.5283 288.323 123.634 279.546 184.856 244.2Z" fill="url(#paint13_radial_1724_7506)"/>
<path opacity="0.5" d="M250.545 144.849C253.176 149.405 253.35 155.252 251.163 162.084C248.976 168.913 244.465 176.592 237.949 184.645C224.919 200.743 204.032 218.134 178.362 232.954C152.692 247.775 127.188 257.168 106.732 260.403C96.4994 262.02 87.5935 262.088 80.5855 260.567C73.576 259.045 68.6003 255.97 65.9695 251.413C63.3381 246.855 63.1627 241.009 65.3499 234.178C67.5366 227.348 72.0477 219.669 78.5651 211.616C91.5944 195.518 112.482 178.128 138.152 163.308C163.822 148.487 189.326 139.094 209.782 135.86C220.014 134.242 228.92 134.175 235.928 135.696C242.938 137.218 247.914 140.292 250.545 144.85L250.545 144.849Z" stroke="url(#paint14_linear_1724_7506)" stroke-width="2"/>
<path fill-rule="evenodd" clip-rule="evenodd" d="M122.257 193.163C123.461 191.896 124.735 190.638 126.073 189.395C127.277 188.281 128.536 187.18 129.849 186.093C134.566 182.177 139.833 178.528 145.407 175.314C154.29 170.178 163.672 166.315 172.477 164.168L122.257 193.163ZM145.399 184.413L183.585 162.367C184.995 162.266 186.361 162.225 187.683 162.241L112.943 205.393C114.305 202.963 116.001 200.482 118.002 197.99L148.243 180.53C147.211 181.829 146.262 183.125 145.399 184.413ZM109.452 214.262L197.123 163.646C196.277 163.365 195.384 163.135 194.457 162.943L140.418 194.143C140.731 193.198 141.081 192.244 141.509 191.272L111.268 208.732C110.43 210.64 109.822 212.491 109.452 214.262ZM203.192 166.988L109.321 221.185C109.035 219.831 108.948 218.382 109.062 216.852L139.303 199.393C139.242 200.161 139.253 200.906 139.293 201.639L201.517 165.714C202.107 166.111 202.676 166.529 203.192 166.988ZM140.976 207.523L140.954 207.486C140.635 206.933 140.374 206.353 140.143 205.762L109.904 223.221C110.132 223.815 110.394 224.397 110.712 224.947C111.046 225.526 111.438 226.061 111.858 226.575L206.565 171.896C206.337 171.287 206.076 170.691 205.75 170.126L140.976 207.523ZM145.276 211.887L207.405 176.017C207.442 176.754 207.429 177.509 207.366 178.28L116.977 230.466C115.589 229.803 114.372 229.008 113.336 228.086L143.577 210.627C144.097 211.085 144.676 211.496 145.276 211.887ZM125.184 232.582L205.119 186.432C205.556 185.454 205.933 184.489 206.249 183.538L152.388 214.635C151.452 214.444 150.542 214.226 149.69 213.951L119.449 231.411C121.18 231.97 123.099 232.362 125.184 232.582ZM159.161 215.332C160.505 215.337 161.9 215.28 163.338 215.162L201.236 193.281C200.351 194.583 199.379 195.893 198.324 197.204L137.934 232.07C134.751 232.574 131.729 232.816 128.92 232.792L159.161 215.332ZM179.417 211.956C177.772 212.462 176.144 212.912 174.539 213.305L144.298 230.765C145.902 230.372 147.531 229.922 149.176 229.415C150.74 228.928 152.322 228.389 153.924 227.797C159.674 225.669 165.467 222.932 171.038 219.712C177.122 216.201 182.835 212.175 187.862 207.854L182.598 210.894C181.531 211.267 180.468 211.628 179.417 211.956Z" fill="#F9F9FF"/>
</g>
<defs>
<radialGradient id="paint0_radial_1724_7506" cx="0" cy="0" r="1" gradientUnits="userSpaceOnUse" gradientTransform="translate(166 111.587) rotate(92.2374) scale(82.3313 97.7039)">
<stop stop-color="white"/>
<stop offset="0.344" stop-color="#FFD771"/>
<stop offset="1" stop-color="#FEE4D0"/>
<stop offset="1" stop-color="#FEF4D0"/>
</radialGradient>
<radialGradient id="paint1_radial_1724_7506" cx="0" cy="0" r="1" gradientUnits="userSpaceOnUse" gradientTransform="translate(166 94.837) rotate(-141.671) scale(75.1963 76.3234)">
<stop stop-color="#FEF5E7"/>
<stop offset="0.344" stop-color="#FFC960"/>
<stop offset="1" stop-color="#FEF4D0"/>
</radialGradient>
<linearGradient id="paint2_linear_1724_7506" x1="167.118" y1="71.1552" x2="168.121" y2="116.703" gradientUnits="userSpaceOnUse">
<stop stop-color="white" stop-opacity="0.24"/>
<stop offset="1" stop-color="white"/>
</linearGradient>
<radialGradient id="paint3_radial_1724_7506" cx="0" cy="0" r="1" gradientUnits="userSpaceOnUse" gradientTransform="translate(166 92.5874) rotate(92.2374) scale(82.3313 97.7039)">
<stop stop-color="white"/>
<stop offset="0.344" stop-color="#FFD771"/>
<stop offset="1" stop-color="#FEE4D0"/>
<stop offset="1" stop-color="#FEF4D0"/>
</radialGradient>
<radialGradient id="paint4_radial_1724_7506" cx="0" cy="0" r="1" gradientUnits="userSpaceOnUse" gradientTransform="translate(166 75.837) rotate(-141.671) scale(75.1963 76.3234)">
<stop stop-color="#FEF5E7"/>
<stop offset="0.344" stop-color="#FFC960"/>
<stop offset="1" stop-color="#FEF4D0"/>
</radialGradient>
<linearGradient id="paint5_linear_1724_7506" x1="167.118" y1="52.1552" x2="168.121" y2="97.7031" gradientUnits="userSpaceOnUse">
<stop stop-color="white" stop-opacity="0.24"/>
<stop offset="1" stop-color="white"/>
</linearGradient>
<radialGradient id="paint6_radial_1724_7506" cx="0" cy="0" r="1" gradientUnits="userSpaceOnUse" gradientTransform="translate(166 73.5874) rotate(92.2374) scale(82.3313 97.7039)">
<stop stop-color="white"/>
<stop offset="0.344" stop-color="#FFD771"/>
<stop offset="1" stop-color="#FEE4D0"/>
<stop offset="1" stop-color="#FEF4D0"/>
</radialGradient>
<radialGradient id="paint7_radial_1724_7506" cx="0" cy="0" r="1" gradientUnits="userSpaceOnUse" gradientTransform="translate(166 56.837) rotate(-141.671) scale(75.1963 76.3234)">
<stop stop-color="#FEF5E7"/>
<stop offset="0.344" stop-color="#FFC960"/>
<stop offset="1" stop-color="#FEF4D0"/>
</radialGradient>
<linearGradient id="paint8_linear_1724_7506" x1="167.118" y1="33.1552" x2="168.121" y2="78.7031" gradientUnits="userSpaceOnUse">
<stop stop-color="white" stop-opacity="0.24"/>
<stop offset="1" stop-color="white"/>
</linearGradient>
<radialGradient id="paint9_radial_1724_7506" cx="0" cy="0" r="1" gradientUnits="userSpaceOnUse" gradientTransform="translate(101.948 167.64) rotate(122.237) scale(109.775 130.272)">
<stop stop-color="white"/>
<stop offset="0.344" stop-color="#FFD771"/>
<stop offset="1" stop-color="#FEE4D0"/>
<stop offset="1" stop-color="#FEF4D0"/>
</radialGradient>
<radialGradient id="paint10_radial_1724_7506" cx="0" cy="0" r="1" gradientUnits="userSpaceOnUse" gradientTransform="translate(113.114 148.298) rotate(-111.671) scale(100.262 101.765)">
<stop stop-color="#FEF5E7"/>
<stop offset="0.344" stop-color="#FFC960"/>
<stop offset="1" stop-color="#FEF4D0"/>
</radialGradient>
<linearGradient id="paint11_linear_1724_7506" x1="130.193" y1="121.698" x2="100.985" y2="174.961" gradientUnits="userSpaceOnUse">
<stop stop-color="white" stop-opacity="0.24"/>
<stop offset="1" stop-color="white"/>
</linearGradient>
<radialGradient id="paint12_radial_1724_7506" cx="0" cy="0" r="1" gradientUnits="userSpaceOnUse" gradientTransform="translate(174.112 225.593) rotate(62.2374) scale(146.367 173.696)">
<stop stop-color="white"/>
<stop offset="0.344" stop-color="#FFD771"/>
<stop offset="1" stop-color="#FEE4D0"/>
<stop offset="1" stop-color="#FEF4D0"/>
</radialGradient>
<radialGradient id="paint13_radial_1724_7506" cx="0" cy="0" r="1" gradientUnits="userSpaceOnUse" gradientTransform="translate(159.223 199.804) rotate(-171.671) scale(133.682 135.686)">
<stop stop-color="#FEF5E7"/>
<stop offset="0.344" stop-color="#FFC960"/>
<stop offset="1" stop-color="#FEF4D0"/>
</radialGradient>
<linearGradient id="paint14_linear_1724_7506" x1="139.895" y1="162.351" x2="181.925" y2="231.586" gradientUnits="userSpaceOnUse">
<stop stop-color="white" stop-opacity="0.24"/>
<stop offset="1" stop-color="white"/>
</linearGradient>
<clipPath id="clip0_1724_7506">
<rect width="320" height="320" fill="white"/>
</clipPath>
</defs>
</svg>
