<svg width="96" height="36" viewBox="0 0 96 36" fill="none" xmlns="http://www.w3.org/2000/svg">
<path d="M45.6774 28.9169V9.99991H47.6247V28.9169H45.6774Z" fill="#F9F9FF"/>
<path d="M50.571 13.1058V9.99991H52.491V13.1058H50.571Z" fill="#F9F9FF"/>
<path d="M50.571 28.9175V14.8004H52.491V28.9175H50.571Z" fill="#F9F9FF"/>
<path fill-rule="evenodd" clip-rule="evenodd" d="M60.5768 14.6872C56.8451 14.6872 54.7626 17.2282 54.7626 21.1811C54.7626 25.1341 56.8723 27.6767 60.55 27.6751C62.876 27.6751 64.5525 26.3764 65.1742 24.7671H65.2015V28.3247C65.2015 31.12 64.2011 32.1929 61.3341 32.1929C58.5226 32.1929 57.4133 31.2043 57.4133 28.9175H55.4927C55.4927 32.136 57.8999 33.9996 61.3069 33.9996C64.8228 33.9996 67.1482 32.1081 67.1482 28.3247V14.9694H65.4178V17.6799H65.3099C64.7144 15.9011 62.93 14.6872 60.5768 14.6872ZM65.2015 21.6044C65.2015 24.485 63.4165 25.9248 61.0099 25.9248C58.4137 25.9248 56.7099 24.8798 56.7099 21.1811C56.7099 17.5109 58.3597 16.4376 60.9015 16.4376C63.3893 16.4376 65.2015 17.8778 65.2015 20.7579V21.6044Z" fill="#F9F9FF"/>
<path d="M70.1758 28.9169V9.99991H72.1231V17.5688H72.231C72.7448 16.2417 74.1239 14.6888 76.8285 14.6888C80.3172 14.6888 81.8046 17.1172 81.8046 20.3078V28.919H79.8835V20.8137C79.8835 17.7926 78.9099 16.4654 76.2053 16.4654C73.5284 16.4654 72.1211 17.7641 72.1211 20.8985V28.9169H70.1758Z" fill="#F9F9FF"/>
<path d="M85.8339 16.7202V24.9645C85.8339 27.9293 87.2669 28.9458 89.728 28.9458C90.4902 28.9398 91.2504 28.8643 92 28.72V27.0823H90.2418C88.5113 27.0823 87.7807 26.7149 87.7807 25.0777V16.7202H92V14.9693H87.7807V11.4123H86.3185L85.8586 14.9693H83.5896V16.7202H85.8339Z" fill="#F9F9FF"/>
<path d="M17.8828 2.00001C15.0663 1.9966 12.3 2.7517 9.87055 4.1871H25.894C23.4649 2.7519 20.699 1.99681 17.8828 2.00001Z" fill="#F9F9FF"/>
<path d="M29.381 6.96889C30.0221 7.64537 30.6032 8.37699 31.1178 9.15541H4.6465C5.02658 8.58891 5.44253 8.04772 5.89181 7.5352H5.8727C5.91162 7.49048 5.95301 7.44874 5.99429 7.40712C6.02932 7.3718 6.06431 7.33651 6.0976 7.2996C6.13867 7.2537 6.17832 7.20648 6.21797 7.15928C6.27222 7.09468 6.3265 7.03006 6.38431 6.96889H6.41132C6.95527 6.38551 7.54161 5.84375 8.16546 5.34811H16.9474C16.3233 5.84346 15.737 6.38524 15.1933 6.96889H29.381Z" fill="#F9F9FF"/>
<path d="M33.2941 14.1226C33.1099 13.3773 32.872 12.6466 32.5823 11.9361H11.9739C12.1961 11.3821 12.4487 10.841 12.7307 10.3153H3.9487C3.66674 10.8409 3.41429 11.382 3.19252 11.9361H3.18295C3.16756 11.9743 3.15389 12.0135 3.14021 12.0528C3.1279 12.0881 3.11558 12.1235 3.102 12.1581C3.0847 12.2017 3.06624 12.2452 3.04766 12.289C3.01794 12.3592 2.98794 12.4299 2.96199 12.5024H2.97606C2.77838 13.0329 2.60945 13.5737 2.47004 14.1226H33.2941Z" fill="#F9F9FF"/>
<path d="M33.7247 16.9052H10.8326C10.8656 16.3624 10.926 15.8216 11.0136 15.285H2.23221C2.14416 15.8216 2.08355 16.3624 2.05062 16.9052H2.04104C2.03653 16.9702 2.03479 17.0351 2.03306 17.0994C2.03178 17.1472 2.0305 17.1947 2.0281 17.2416C2.0265 17.2782 2.02364 17.3144 2.02076 17.3506C2.01759 17.3907 2.01441 17.4308 2.01294 17.4715H2.0197C2.01751 17.5283 2.01468 17.5849 2.01185 17.6416C2.00593 17.76 2 17.8785 2 17.9988C2 18.3663 2.01687 18.7304 2.04104 19.0917H33.7247C33.7489 18.7304 33.7658 18.3663 33.7658 17.9988C33.7658 17.6312 33.7489 17.2671 33.7247 16.9052Z" fill="#F9F9FF"/>
<path d="M7.60321 30.1899H16.3852C17.0944 30.7967 17.855 31.3398 18.6583 31.8129H25.8952C23.4658 33.2483 20.6995 34.0034 17.883 34C15.4724 34.001 13.0936 33.4462 10.9288 32.3781H10.9141C10.8986 32.3699 10.8835 32.3613 10.8685 32.3529C10.8493 32.342 10.8303 32.3313 10.8107 32.3215C10.7634 32.2978 10.717 32.2725 10.6705 32.2472C10.6401 32.2306 10.6097 32.2141 10.5791 32.198C10.3576 32.0825 10.1377 31.9647 9.9224 31.8389C9.91339 31.8335 9.90406 31.8285 9.89467 31.8236C9.88648 31.8192 9.87821 31.8148 9.8701 31.8101H9.87631C9.07313 31.3379 8.31251 30.7957 7.60321 30.1899Z" fill="#F9F9FF"/>
<path d="M12.494 25.2221H3.71199C3.99783 25.7805 4.31586 26.3214 4.66441 26.8424H4.64753C4.68217 26.8945 4.71958 26.9443 4.75697 26.994C4.78695 27.0338 4.81691 27.0737 4.84543 27.1148C4.87391 27.1558 4.90206 27.1996 4.93057 27.244C4.96621 27.2994 5.00245 27.3558 5.04055 27.4087H5.05853C5.4652 27.9772 5.90802 28.5186 6.38424 29.0294H29.3793C30.0202 28.3527 30.6013 27.6209 31.116 26.8424H13.4447C13.0963 26.3217 12.7788 25.7806 12.494 25.2221Z" fill="#F9F9FF"/>
<path d="M2.15971 20.2535H10.9417C11.0212 20.7989 11.1293 21.3397 11.2655 21.8737H33.2941C33.1099 22.619 32.872 23.3497 32.5823 24.0602H3.18297C2.97129 23.5304 2.78793 22.9895 2.63368 22.44H2.62469C2.61219 22.3967 2.60184 22.3524 2.59148 22.3081C2.58273 22.2707 2.57399 22.2333 2.56395 22.1965C2.55146 22.1503 2.53774 22.1046 2.52401 22.0589C2.50561 21.9976 2.4872 21.9363 2.47174 21.8737H2.48355C2.34756 21.3397 2.23947 20.7989 2.15971 20.2535Z" fill="#F9F9FF"/>
</svg>
