<svg width="1280" height="1280" viewBox="0 0 1280 1280" fill="none" xmlns="http://www.w3.org/2000/svg">
<g filter="url(#filter0_f_11893_12909)">
<circle cx="640" cy="640" r="384" fill="url(#paint0_angular_11893_12909)"/>
</g>
<g filter="url(#filter1_f_11893_12909)">
<path d="M942.4 659.961C927.084 711.684 899.214 758.637 857.534 795.295C829.162 820.152 798.027 838.23 762.122 849.026C759.361 849.78 757.101 850.533 754.339 851.286C705.378 864.594 654.408 862.083 608.209 842.498C569.291 825.927 536.399 799.061 514.555 761.65C514.052 760.896 513.55 760.394 513.048 759.641C511.291 756.628 510.035 753.866 508.529 750.853C497.983 731.017 491.455 709.675 488.944 687.831C487.187 686.576 485.429 685.571 483.42 685.069C480.156 684.316 476.892 685.069 474.13 687.078C471.871 688.584 470.113 690.342 468.355 692.351C462.078 700.385 459.065 709.173 456.806 718.965C454.295 730.264 453.793 741.061 454.044 752.359C454.546 763.156 456.052 773.45 458.563 784.247C458.814 785 459.065 785.502 459.316 786.256C479.152 864.594 542.676 921.087 615.239 947.2C592.893 940.672 572.053 931.884 551.464 920.334C548.702 918.576 545.94 917.321 543.178 915.563C534.892 910.291 527.36 905.52 519.827 899.494C517.317 897.485 515.057 895.728 512.546 893.719C500.494 883.927 489.949 874.135 479.654 862.334C477.645 860.074 475.888 857.814 473.879 855.555C450.78 827.684 434.961 797.554 424.918 763.156C408.347 705.909 413.368 645.398 442.494 592.671C442.996 591.666 443.749 591.164 444.251 590.16C454.546 571.58 467.351 555.761 483.169 541.45C506.52 520.61 532.633 506.047 563.265 498.515C564.52 498.012 565.776 497.51 567.282 497.259C574.061 496.004 580.338 494.497 587.118 493.744C588.373 492.237 589.377 490.48 589.88 488.722C590.633 485.458 590.131 482.194 588.373 479.432C586.867 477.173 585.36 475.415 583.351 473.657C571.299 463.865 556.485 460.852 541.672 459.346C526.104 457.839 511.039 459.095 495.221 462.61C494.468 462.861 493.715 462.61 492.962 462.861C484.676 464.869 476.892 467.129 468.858 470.142C457.559 474.411 447.013 479.432 436.217 485.709C426.173 491.735 417.386 498.012 408.095 505.294C370.182 536.177 344.069 575.597 328 620.039C332.017 605.476 337.29 591.666 343.567 577.857C345.074 574.844 346.329 572.082 347.836 569.069C359.134 546.22 373.195 525.883 390.269 506.8C397.55 498.766 404.831 491.735 412.866 484.454C429.438 469.891 446.762 457.839 466.347 447.796C484.927 438.506 503.005 431.475 523.594 426.705C566.529 416.662 608.962 418.419 649.637 432.731C651.646 433.484 653.655 434.237 655.914 434.991C661.187 436.999 665.958 439.259 670.979 441.519C672.988 442.523 674.746 443.527 676.754 444.281C681.525 446.54 685.793 449.302 690.564 452.064C694.079 454.324 697.092 456.584 700.858 458.843C701.611 459.346 702.365 460.099 703.118 460.852C715.672 469.64 725.464 478.93 735.508 489.978C742.789 498.263 748.815 506.298 754.59 515.839C769.153 539.692 777.69 565.052 781.456 591.917C785.473 595.935 792.001 595.935 796.772 592.42C804.304 586.645 808.071 578.359 810.833 569.822C820.625 539.441 816.607 507.805 806.564 478.177C799.534 457.839 789.993 440.263 776.936 422.185C759.863 398.584 741.283 381.51 717.43 364.687C714.417 362.679 711.655 360.921 708.642 358.912C691.066 347.865 673.741 339.579 655.161 332.8C718.183 350.878 773.672 388.038 812.088 445.536C826.651 467.38 836.945 488.722 844.227 513.077C848.997 529.649 852.261 545.718 853.768 562.792C854.772 576.35 854.772 589.909 853.517 603.467C852.261 614.013 850.755 624.307 848.244 634.853C835.69 685.32 808.071 727.502 763.629 756.628C738.27 773.199 711.655 782.489 683.031 786.256C680.521 789.52 679.265 793.537 680.52 797.303C682.78 804.083 689.057 808.1 695.083 811.615C695.334 811.866 695.837 811.615 696.088 811.866C701.109 814.377 706.131 816.135 711.404 817.641C713.161 818.143 714.919 818.394 716.676 818.645C753.083 825.927 787.733 817.39 819.872 801.823C876.114 774.204 917.041 724.74 939.638 667.242C940.642 664.731 941.396 662.221 942.4 659.961Z" fill="white"/>
</g>
<defs>
<filter id="filter0_f_11893_12909" x="0" y="0" width="1280" height="1280" filterUnits="userSpaceOnUse" color-interpolation-filters="sRGB">
<feFlood flood-opacity="0" result="BackgroundImageFix"/>
<feBlend mode="normal" in="SourceGraphic" in2="BackgroundImageFix" result="shape"/>
<feGaussianBlur stdDeviation="128" result="effect1_foregroundBlur_11893_12909"/>
</filter>
<filter id="filter1_f_11893_12909" x="232" y="236.8" width="806.4" height="806.4" filterUnits="userSpaceOnUse" color-interpolation-filters="sRGB">
<feFlood flood-opacity="0" result="BackgroundImageFix"/>
<feBlend mode="normal" in="SourceGraphic" in2="BackgroundImageFix" result="shape"/>
<feGaussianBlur stdDeviation="48" result="effect1_foregroundBlur_11893_12909"/>
</filter>
<radialGradient id="paint0_angular_11893_12909" cx="0" cy="0" r="1" gradientUnits="userSpaceOnUse" gradientTransform="translate(640 640) rotate(125.125) scale(271.134)">
<stop stop-color="#FF4DB8"/>
<stop offset="0.5" stop-color="#FFE924"/>
<stop offset="1" stop-color="#71D4FF"/>
</radialGradient>
</defs>
</svg>
