<svg width="1472" height="1472" viewBox="0 0 1472 1472" fill="none" xmlns="http://www.w3.org/2000/svg">
    <g filter="url(#filter0_f_8058_4317)">
        <circle cx="736" cy="736" r="480" fill="url(#paint0_radial_8058_4317)" />
    </g>
    <g filter="url(#filter1_f_8058_4317)">
        <path
            d="M1114 760.951C1094.85 825.605 1060.02 884.296 1007.92 930.119C972.452 961.19 933.534 983.788 888.653 997.283C885.201 998.225 882.376 999.166 878.924 1000.11C817.722 1016.74 754.01 1013.6 696.261 989.123C647.613 968.409 606.499 934.826 579.193 888.062C578.566 887.121 577.938 886.493 577.31 885.551C575.113 881.785 573.544 878.333 571.661 874.566C558.479 849.772 550.319 823.094 547.18 795.789C544.983 794.22 542.786 792.964 540.275 792.337C536.195 791.395 532.115 792.337 528.663 794.848C525.838 796.731 523.641 798.928 521.444 801.439C513.598 811.482 509.832 822.467 507.007 834.707C503.868 848.83 503.241 862.326 503.555 876.45C504.182 889.945 506.065 902.813 509.204 916.309C509.518 917.25 509.832 917.878 510.145 918.82C534.94 1016.74 614.345 1087.36 705.049 1120C677.116 1111.84 651.066 1100.85 625.33 1086.42C621.877 1084.22 618.425 1082.65 614.973 1080.45C604.615 1073.86 595.2 1067.9 585.784 1060.37C582.646 1057.86 579.821 1055.66 576.682 1053.15C561.617 1040.91 548.436 1028.67 535.568 1013.92C533.057 1011.09 530.86 1008.27 528.349 1005.44C499.474 970.606 479.702 932.943 467.148 889.945C446.433 818.387 452.71 742.748 489.117 676.839C489.745 675.583 490.687 674.955 491.314 673.7C504.182 650.475 520.189 630.702 539.962 612.812C569.15 586.763 601.791 568.559 640.081 559.143C641.65 558.516 643.219 557.888 645.103 557.574C653.577 556.005 661.423 554.122 669.897 553.18C671.466 551.297 672.722 549.1 673.349 546.903C674.291 542.823 673.663 538.743 671.466 535.291C669.583 532.466 667.7 530.269 665.189 528.072C650.124 515.832 631.607 512.065 613.089 510.182C593.631 508.299 574.799 509.868 555.027 514.262C554.085 514.576 553.143 514.262 552.202 514.576C541.845 517.087 532.115 519.912 522.072 523.678C507.949 529.013 494.767 535.291 481.271 543.137C468.717 550.669 457.732 558.516 446.119 567.617C398.727 606.221 366.087 655.497 346 711.049C351.022 692.845 357.613 675.583 365.459 658.321C367.342 654.555 368.911 651.103 370.794 647.336C384.918 618.776 402.494 593.354 423.836 569.501C432.937 559.457 442.039 550.669 452.083 541.568C472.797 523.364 494.453 508.299 518.933 495.745C542.159 484.132 564.756 475.345 590.492 469.381C644.161 456.827 697.202 459.024 748.047 476.914C750.557 477.855 753.068 478.797 755.893 479.738C762.484 482.249 768.447 485.074 774.724 487.899C777.235 489.154 779.432 490.409 781.943 491.351C787.906 494.176 793.242 497.628 799.205 501.081C803.599 503.905 807.365 506.73 812.073 509.555C813.014 510.182 813.956 511.124 814.897 512.065C830.59 523.05 842.83 534.663 855.385 548.472C864.486 558.83 872.019 568.873 879.237 580.799C897.441 610.615 908.112 642.315 912.82 675.897C917.841 680.919 926.002 680.919 931.965 676.525C941.38 669.306 946.088 658.949 949.541 648.278C961.781 610.302 956.759 570.756 944.205 533.721C935.417 508.299 923.491 486.329 907.17 463.732C885.828 434.23 862.603 412.888 832.787 391.859C829.021 389.349 825.568 387.152 821.802 384.641C799.832 370.831 778.177 360.474 754.951 352C833.729 374.597 903.09 421.048 951.11 492.92C969.313 520.226 982.181 546.903 991.283 577.347C997.246 598.061 1001.33 618.148 1003.21 639.49C1004.47 656.438 1004.47 673.386 1002.9 690.334C1001.33 703.516 999.443 716.384 996.305 729.566C980.612 792.651 946.088 845.378 890.536 881.785C858.837 902.499 825.568 914.112 789.789 918.82C786.651 922.9 785.081 927.922 786.651 932.629C789.475 941.103 797.322 946.125 804.854 950.519C805.168 950.833 805.796 950.519 806.11 950.833C812.387 953.971 818.664 956.168 825.255 958.052C827.452 958.679 829.649 958.993 831.846 959.307C877.354 968.409 920.666 957.738 960.839 938.279C1031.14 903.755 1082.3 841.926 1110.55 770.053C1111.8 766.915 1112.74 763.776 1114 760.951Z"
            fill="white" />
    </g>
    <defs>
        <filter id="filter0_f_8058_4317" x="0" y="0" width="1472" height="1472" filterUnits="userSpaceOnUse"
            color-interpolation-filters="sRGB">
            <feFlood flood-opacity="0" result="BackgroundImageFix" />
            <feBlend mode="normal" in="SourceGraphic" in2="BackgroundImageFix" result="shape" />
            <feGaussianBlur stdDeviation="128" result="effect1_foregroundBlur_8058_4317" />
        </filter>
        <filter id="filter1_f_8058_4317" x="282" y="288" width="896" height="896" filterUnits="userSpaceOnUse"
            color-interpolation-filters="sRGB">
            <feFlood flood-opacity="0" result="BackgroundImageFix" />
            <feBlend mode="normal" in="SourceGraphic" in2="BackgroundImageFix" result="shape" />
            <feGaussianBlur stdDeviation="32" result="effect1_foregroundBlur_8058_4317" />
        </filter>
        <radialGradient id="paint0_radial_8058_4317" cx="0" cy="0" r="1" gradientUnits="userSpaceOnUse"
            gradientTransform="translate(736 748.973) rotate(90) scale(467.027)">
            <stop offset="0.54919" stop-color="white" />
            <stop offset="0.585649" stop-color="#ADB1FF" />
            <stop offset="0.768291" stop-color="#809BFA" />
            <stop offset="1" stop-color="rgba(0, 0, 0, 0)" />
        </radialGradient>
    </defs>
</svg>